<?xml version="1.0" standalone="no"?>
<!DOCTYPE svg PUBLIC "-//W3C//DTD SVG 20010904//EN"
 "http://www.w3.org/TR/2001/REC-SVG-20010904/DTD/svg10.dtd">
<svg version="1.0" xmlns="http://www.w3.org/2000/svg"
 width="512.000000pt" height="512.000000pt" viewBox="0 0 512.000000 512.000000"
 preserveAspectRatio="xMidYMid meet">

<g transform="translate(0.000000,512.000000) scale(0.100000,-0.100000)"
fill="#000000" stroke="none">
<path d="M1605 4514 c-171 -41 -336 -174 -414 -334 -158 -322 -38 -688 279
-854 92 -49 178 -69 290 -69 343 0 615 257 637 603 19 300 -194 586 -487 654
-81 19 -225 19 -305 0z m258 -209 c84 -22 134 -51 197 -114 164 -164 168 -418
9 -586 -88 -93 -185 -135 -311 -135 -122 0 -224 46 -311 139 -155 166 -149
420 13 582 111 111 256 152 403 114z"/>
<path d="M3205 4514 c-171 -41 -336 -174 -414 -334 -158 -322 -38 -688 279
-854 92 -49 178 -69 290 -69 343 0 615 257 637 603 19 300 -194 586 -487 654
-81 19 -225 19 -305 0z m258 -209 c84 -22 134 -51 197 -114 164 -164 168 -418
9 -586 -88 -93 -185 -135 -311 -135 -122 0 -224 46 -311 139 -155 166 -149
420 13 582 111 111 256 152 403 114z"/>
<path d="M864 3341 c-229 -56 -411 -235 -471 -464 -21 -81 -21 -233 0 -314 60
-230 257 -420 482 -466 74 -16 73 -18 -17 -35 -132 -25 -259 -95 -369 -202
-86 -85 -145 -178 -186 -295 l-28 -80 -3 -418 -3 -418 30 -29 29 -30 682 0
682 0 34 34 34 34 0 371 c0 300 -3 387 -16 449 -52 253 -225 459 -464 551 -41
16 -97 32 -125 36 -75 11 -75 17 -4 32 226 45 430 245 483 473 9 36 16 103 16
150 0 179 -58 318 -185 446 -63 64 -98 90 -165 123 -144 70 -291 88 -436 52z
m222 -202 c88 -16 162 -56 227 -120 168 -168 168 -430 0 -598 -166 -165 -420
-169 -588 -10 -92 87 -135 185 -135 309 0 123 43 222 133 308 64 60 119 89
201 107 78 17 90 17 162 4z m74 -1295 c172 -49 308 -184 366 -364 15 -46 18
-104 22 -367 l4 -313 -537 0 -536 0 3 323 c4 302 5 326 26 381 103 276 374
418 652 340z"/>
<path d="M2421 3345 c-177 -39 -347 -171 -429 -335 -95 -191 -95 -389 0 -580
82 -164 253 -297 429 -334 69 -15 67 -17 -26 -36 -256 -52 -484 -272 -557
-537 -20 -72 -22 -108 -26 -448 -4 -398 -1 -429 45 -464 25 -21 35 -21 703
-21 668 0 678 0 703 21 46 35 49 66 45 464 -4 340 -6 376 -26 448 -73 267
-299 484 -557 537 -93 19 -95 21 -25 36 174 36 345 170 428 334 95 190 96 389
0 580 -129 257 -423 396 -707 335z m285 -226 c189 -71 306 -266 275 -460 -38
-233 -257 -396 -482 -360 -233 38 -396 257 -360 482 36 224 235 382 456 362
33 -3 83 -14 111 -24z m20 -1280 c122 -38 245 -143 305 -261 55 -108 59 -144
59 -475 l0 -303 -530 0 -530 0 0 303 c0 328 5 366 57 472 14 30 49 80 77 111
142 160 352 217 562 153z"/>
<path d="M3970 3344 c-229 -49 -431 -246 -484 -474 -9 -36 -16 -103 -16 -150
0 -179 58 -318 185 -446 63 -64 98 -90 165 -123 47 -23 114 -47 149 -54 71
-15 71 -21 -4 -32 -227 -33 -456 -222 -551 -457 -48 -117 -54 -180 -54 -580
l0 -370 34 -34 34 -34 682 0 682 0 29 29 29 29 0 389 c0 420 -4 463 -55 583
-40 96 -90 167 -169 245 -106 103 -235 173 -364 197 -89 17 -91 19 -27 33 117
26 193 62 276 131 100 83 181 209 215 335 22 85 22 234 0 319 -89 331 -422
536 -756 464z m221 -208 c87 -19 141 -47 206 -108 90 -86 133 -185 133 -308 0
-124 -43 -222 -135 -309 -168 -159 -422 -155 -588 10 -238 238 -118 644 213
715 73 16 93 16 171 0z m54 -1288 c162 -42 299 -169 364 -338 25 -64 25 -71
29 -387 l3 -323 -536 0 -537 0 4 313 c4 263 7 321 22 367 65 203 224 343 429
379 57 10 160 5 222 -11z"/>
</g>
</svg>
